<?xml version="1.0" encoding="utf-8"?>
<!-- Generator: Adobe Illustrator 16.0.0, SVG Export Plug-In . SVG Version: 6.00 Build 0)  -->
<!DOCTYPE svg PUBLIC "-//W3C//DTD SVG 1.1//EN" "http://www.w3.org/Graphics/SVG/1.1/DTD/svg11.dtd">
<svg version="1.1" id="Layer_1" xmlns="http://www.w3.org/2000/svg" xmlns:xlink="http://www.w3.org/1999/xlink" x="0px" y="0px"
	 width="215.814px" height="44.312px" viewBox="0 0 215.814 44.312" enable-background="new 0 0 215.814 44.312"
	 xml:space="preserve">
<g>
	<path fill="#885541" d="M15.519,31.223c0,4.999,4.04,3.479,4.04,4.88c0,0.68-0.4,0.6-0.96,0.6c-2.8,0-4.559-0.16-5.439-0.16
		c-1.6,0-4.679,0.16-4.919,0.16c-0.12,0-0.84,0.08-0.84-0.6c0-1.16,3.2-0.28,3.2-5.279V13.226c0-4.239-4.16-2.6-4.16-4.079
		c0-0.24,0.16-0.76,1.12-0.76c0.28,0,2.479,0.16,5.519,0.16c0.56,0,3.399-0.12,6.239-0.16c5.119-0.08,10.079,1.92,10.079,7.759
		c0,4.999-3.72,8.038-8.479,8.038c-3.919,0-4.119-0.999-4.119-1.159c0-0.28,0.08-0.76,0.56-0.76c0.32,0,1,0.239,1.879,0.239
		c4.839,0,5.199-4.519,5.239-5.559s-0.32-6.879-6.519-6.879c-1.799,0-2.439,0.8-2.439,2.6V31.223z"/>
	<path fill="#885541" d="M49.478,33.303c0,2.72,2.479,1.64,2.479,3.039c0,0.24-0.2,0.36-0.36,0.36c-1.44,0-2.919-0.16-4.359-0.16
		c-1,0-1.959,0.16-3.319,0.16c-0.2,0-0.64,0.12-0.64-0.4c0-0.76,1.96-0.88,1.96-3.079v-5.839c0-2.68-0.56-5.479-3.919-5.479
		c-1,0-2,0.521-2.72,1.12c-0.6,0.52-0.76,0.56-0.76,1.319v8.639c0,2.76,3.16,2.12,3.16,3.239c0,0.641-0.68,0.48-1.8,0.48
		c-1.32,0-2.04-0.16-4.08-0.16c-1.2,0-1.64,0.16-2.439,0.16c-0.32,0-1.2,0.04-1.2-0.44c0-1.039,2.12-0.6,2.12-2.319V11.987
		c0-2.359-2.64-1.08-2.64-2.24c0-0.68,0.6-0.52,3.16-1.399c3.08-0.88,2.959-1.6,3.639-1.6c0.52,0,0.08,1.12,0.08,3.359v12.198h0.08
		c1.32-1.68,3.319-2.92,5.519-2.92c3.879,0,6.039,2.319,6.039,6.959V33.303z"/>
	<path fill="#885541" d="M62.479,36.982c-4.839,0-8.598-3.359-8.598-8.278c0-5.239,3.719-9.318,9.078-9.318
		c5,0,8.839,3.319,8.839,8.358C71.798,33.183,67.998,36.982,62.479,36.982z M58.12,26.424c-0.12,2.64,1.16,9.158,5.599,9.158
		c3.12,0,4.04-2.319,4.04-5.039c0-3.199-1.16-9.878-5.479-9.878C58.8,20.666,58.24,23.544,58.12,26.424z"/>
	<path fill="#885541" d="M76.04,22.105H74.8c-0.76,0-1.04-0.36-1.04-0.6c0-0.88,0.68-1,1.8-2.04c3-2.84,3.559-4.68,4.239-4.68
		c0.32,0,0.48,0.28,0.48,0.44v4.279c0,0.399,0.44,0.399,0.879,0.399h2.76c0.92,0,0.68-0.879,1.28-0.879
		c0.16,0,0.24,0.119,0.24,0.279c0,0.28-0.4,1.16-0.52,1.479c-0.28,0.561-0.28,1.28-0.8,1.28H80.28v10.438
		c0,1.399,0.28,2.199,1.839,2.199c2,0,2.76-0.96,3.2-0.96c0.28,0,0.44,0.12,0.44,0.601c0,0.68-2.28,2.639-5.559,2.639
		c-4.56,0-4.16-3.438-4.16-4.479V22.105z"/>
	<path fill="#885541" d="M95.799,36.982c-4.839,0-8.598-3.359-8.598-8.278c0-5.239,3.719-9.318,9.078-9.318
		c5,0,8.838,3.319,8.838,8.358C105.117,33.183,101.318,36.982,95.799,36.982z M91.44,26.424c-0.12,2.64,1.16,9.158,5.599,9.158
		c3.119,0,4.039-2.319,4.039-5.039c0-3.199-1.16-9.878-5.479-9.878C92.12,20.666,91.56,23.544,91.44,26.424z"/>
	<path fill="#885541" d="M108.84,12.346c0-2.959-2.479-1.199-2.479-2.6c0-1.079,1.92-0.439,5.679-2.719c0.2-0.12,0.4-0.28,0.68-0.28
		c0.44,0,0.36,0.84,0.36,1.08v14.237c1.479-1.479,3.239-2.68,5.359-2.68c4.119,0,6.358,3.56,6.358,7.358
		c0,6.439-3.6,10.238-8.438,10.238c-3.68,0-4.839-1.68-5.439-1.68c-0.6,0-1.039,1.68-1.919,1.68c-0.32,0-0.44-0.239-0.44-0.439
		c0-0.32,0.28-1.2,0.28-3.239V12.346z M113.079,31.423c0,3.359,2.999,4.119,4.119,4.119c3.319,0,4.119-3.239,4.119-5.879
		c0-3.039-1.479-7.519-5.199-7.519c-1.199,0-3.039,0.76-3.039,2.159V31.423z"/>
	<path fill="#885541" d="M135.799,36.982c-4.84,0-8.599-3.359-8.599-8.278c0-5.239,3.719-9.318,9.078-9.318
		c4.999,0,8.839,3.319,8.839,8.358C145.117,33.183,141.317,36.982,135.799,36.982z M131.439,26.424
		c-0.12,2.64,1.159,9.158,5.599,9.158c3.12,0,4.04-2.319,4.04-5.039c0-3.199-1.16-9.878-5.479-9.878
		C132.119,20.666,131.56,23.544,131.439,26.424z"/>
	<path fill="#885541" d="M155.799,36.982c-4.84,0-8.599-3.359-8.599-8.278c0-5.239,3.719-9.318,9.078-9.318
		c4.999,0,8.839,3.319,8.839,8.358C165.117,33.183,161.317,36.982,155.799,36.982z M151.439,26.424
		c-0.12,2.64,1.159,9.158,5.599,9.158c3.12,0,4.04-2.319,4.04-5.039c0-3.199-1.16-9.878-5.479-9.878
		C152.119,20.666,151.56,23.544,151.439,26.424z"/>
	<path fill="#885541" d="M169.359,22.105h-1.239c-0.76,0-1.04-0.36-1.04-0.6c0-0.88,0.68-1,1.8-2.04
		c2.999-2.84,3.56-4.68,4.239-4.68c0.319,0,0.479,0.28,0.479,0.44v4.279c0,0.399,0.44,0.399,0.88,0.399h2.76
		c0.92,0,0.68-0.879,1.28-0.879c0.159,0,0.239,0.119,0.239,0.279c0,0.28-0.399,1.16-0.52,1.479c-0.28,0.561-0.28,1.28-0.8,1.28
		h-3.84v10.438c0,1.399,0.28,2.199,1.84,2.199c2,0,2.76-0.96,3.199-0.96c0.28,0,0.44,0.12,0.44,0.601c0,0.68-2.279,2.639-5.56,2.639
		c-4.559,0-4.159-3.438-4.159-4.479V22.105z"/>
	<path fill="#885541" d="M198.356,33.303c0,2.72,2.479,1.64,2.479,3.039c0,0.24-0.2,0.36-0.36,0.36c-1.439,0-2.919-0.16-4.358-0.16
		c-1,0-1.96,0.16-3.32,0.16c-0.199,0-0.64,0.12-0.64-0.4c0-0.76,1.96-0.88,1.96-3.079v-5.839c0-2.68-0.561-5.479-3.92-5.479
		c-0.999,0-1.999,0.521-2.719,1.12c-0.601,0.52-0.76,0.56-0.76,1.319v8.639c0,2.76,3.159,2.12,3.159,3.239
		c0,0.641-0.68,0.48-1.8,0.48c-1.32,0-2.04-0.16-4.079-0.16c-1.2,0-1.64,0.16-2.439,0.16c-0.32,0-1.2,0.04-1.2-0.44
		c0-1.039,2.119-0.6,2.119-2.319V11.987c0-2.359-2.639-1.08-2.639-2.24c0-0.68,0.6-0.52,3.159-1.399c3.079-0.88,2.959-1.6,3.64-1.6
		c0.52,0,0.08,1.12,0.08,3.359v12.198h0.079c1.32-1.68,3.32-2.92,5.52-2.92c3.879,0,6.039,2.319,6.039,6.959V33.303z"/>
	<path fill="#885541" d="M210.678,32.943c0,1-2.599,3.6-3.599,3.6s-3.6-2.6-3.6-3.6s2.6-3.6,3.6-3.6S210.678,31.943,210.678,32.943z
		"/>
</g>
</svg>
